<?xml version="1.0" standalone="no"?>
<!DOCTYPE svg PUBLIC "-//W3C//DTD SVG 20010904//EN"
 "http://www.w3.org/TR/2001/REC-SVG-20010904/DTD/svg10.dtd">
<svg version="1.0" xmlns="http://www.w3.org/2000/svg"
 width="225.000000pt" height="225.000000pt" viewBox="0 0 225.000000 225.000000"
 preserveAspectRatio="xMidYMid meet">

<g transform="translate(0.000000,225.000000) scale(0.100000,-0.100000)"
fill="#000000" stroke="none">
<path d="M540 2054 c-150 -22 -264 -78 -365 -179 -192 -193 -218 -451 -75
-752 l39 -83 210 0 209 0 16 43 c8 23 52 143 96 267 44 124 90 251 101 282 12
32 27 63 35 69 19 16 61 3 67 -21 3 -11 20 -193 38 -404 l33 -384 61 217 c74
262 69 247 94 254 39 10 51 -15 89 -172 l37 -154 59 249 c56 235 73 284 101
284 39 0 44 -21 90 -345 25 -175 48 -321 50 -323 2 -2 9 22 16 53 7 30 17 62
23 70 9 12 57 15 271 15 144 1 266 4 272 8 23 14 91 170 113 255 43 174 20
351 -61 479 -123 192 -397 312 -602 264 -151 -35 -325 -161 -408 -293 -13 -22
-39 -32 -39 -15 0 16 -116 142 -170 185 -122 99 -276 149 -400 131z"/>
<path d="M742 1280 c-34 -96 -75 -209 -90 -250 l-28 -75 -208 -3 -208 -2 18
-28 c35 -54 123 -138 325 -311 113 -97 228 -194 255 -216 27 -22 89 -74 139
-115 172 -144 174 -145 200 -129 22 13 348 281 456 374 25 22 57 49 70 59 145
116 369 333 369 357 0 5 -92 9 -203 9 l-204 0 -44 -147 c-41 -135 -47 -149
-72 -157 -21 -8 -31 -6 -41 5 -13 13 -43 193 -82 489 -8 63 -16 118 -17 122
-1 5 -26 -94 -56 -220 -30 -125 -58 -233 -64 -239 -12 -17 -52 -17 -65 0 -6 6
-27 82 -47 167 -20 85 -38 156 -39 157 -1 1 -12 -37 -24 -85 -63 -245 -122
-437 -138 -449 -22 -16 -26 -16 -48 0 -19 14 -36 155 -74 642 l-17 220 -63
-175z"/>
</g>
</svg>
